<?xml version="1.0" encoding="UTF-8"?>
<svg version="1.1" xmlns="http://www.w3.org/2000/svg" width="1069" height="312">
<path d="M0 0 C352.77 0 705.54 0 1069 0 C1069 102.96 1069 205.92 1069 312 C716.23 312 363.46 312 0 312 C0 209.04 0 106.08 0 0 Z " fill="#010101" transform="translate(0,0)"/>
<path d="M0 0 C5.19519468 2.96868267 9.29980081 6.4152934 11.1875 12.25 C11.91320975 18.128982 12.08216411 23.32303114 9.5625 28.75 C6.43639687 32.04063488 3.29010127 35.19869937 -0.8125 37.25 C-1.1425 47.81 -1.4725 58.37 -1.8125 69.25 C3.1478125 69.19199219 8.108125 69.13398437 13.21875 69.07421875 C16.37242879 69.04865292 19.52597875 69.02458232 22.6796875 69.00585938 C27.67898287 68.97603826 32.67781776 68.94086641 37.67675781 68.87280273 C41.70980352 68.81823768 45.74235506 68.78852841 49.77574158 68.77561378 C51.30988844 68.76641752 52.84401006 68.74845925 54.37794495 68.72134972 C69.97577983 68.45679856 69.97577983 68.45679856 76.1875 74.25 C80.63636579 78.93301662 82.43421459 83.30344866 82.44819641 89.73947144 C82.45528122 90.83006866 82.46236603 91.92066589 82.46966553 93.04431152 C82.46718811 94.23093384 82.46471069 95.41755615 82.4621582 96.64013672 C82.46726913 97.89758698 82.47238007 99.15503723 82.47764587 100.45059204 C82.49101511 103.89283462 82.49161679 107.33496726 82.48908257 110.77723074 C82.48801129 113.65484087 82.49290035 116.53242891 82.497688 119.4100343 C82.50877635 126.20159574 82.50922461 132.99310186 82.50317383 139.78466797 C82.49713604 146.78122611 82.50944151 153.77758305 82.5307439 160.77410686 C82.54838295 166.78956692 82.55435757 172.80496308 82.55110615 178.82044804 C82.54929656 182.40943634 82.55189684 185.99828115 82.56582069 189.58724594 C82.58077664 193.59198735 82.57140885 197.59632166 82.55981445 201.60107422 C82.56745819 202.78364807 82.57510193 203.96622192 82.58297729 205.18463135 C82.53396433 212.84465773 81.96271831 218.03658933 76.8125 224 C72.14721028 227.99881976 69.04251703 229.62412374 62.83158875 229.63768005 C61.54891113 229.64758469 60.26623352 229.65748932 58.94468689 229.66769409 C57.53042506 229.66345626 56.11616417 229.65889842 54.7019043 229.65405273 C53.20677175 229.65975746 51.71164355 229.66672212 50.21652222 229.67485046 C46.16056254 229.69278907 42.10481913 229.69161181 38.0488317 229.68590808 C34.65933134 229.68281621 31.26987252 229.68890889 27.88037807 229.69494683 C19.88058471 229.70899371 11.88089812 229.70743036 3.88110352 229.69604492 C-4.36175278 229.68457249 -12.60428338 229.69862415 -20.84709674 229.7254414 C-27.93178828 229.74762473 -35.01637779 229.75422959 -42.10110158 229.74836498 C-46.32898357 229.7449994 -50.55665698 229.74738344 -54.78450966 229.76461601 C-58.76306775 229.7801244 -62.74114523 229.77608688 -66.7196846 229.75731087 C-68.17569197 229.75363523 -69.63173523 229.75670351 -71.08770943 229.76719666 C-79.04127248 229.82011793 -85.09429347 229.75021651 -91.8125 225.25 C-94.1875 222.25 -94.1875 222.25 -95.8125 219.25 C-96.17063876 218.6388651 -96.52877752 218.0277302 -96.89776897 217.39807606 C-98.02184517 214.75839171 -98.06697338 212.74812137 -98.07319641 209.88078308 C-98.08028122 208.79156052 -98.08736603 207.70233795 -98.09466553 206.58010864 C-98.09218811 205.38989105 -98.08971069 204.19967346 -98.0871582 202.97338867 C-98.09226913 201.71608444 -98.09738007 200.45878021 -98.10264587 199.16337585 C-98.1160325 195.71694205 -98.11661474 192.27061794 -98.11408257 188.8241632 C-98.11301224 185.9441179 -98.11789803 183.06409475 -98.122688 180.1840542 C-98.13378286 173.38627643 -98.13422127 166.58855392 -98.12817383 159.79077148 C-98.12213855 152.78684976 -98.13443364 145.78312915 -98.1557439 138.77924174 C-98.17338361 132.7595556 -98.17935737 126.73993332 -98.17610615 120.72022229 C-98.1742963 117.1278657 -98.17689921 113.53565244 -98.19082069 109.94331932 C-98.20577762 105.93367937 -98.19640826 101.92444601 -98.18481445 97.91479492 C-98.19245819 96.73065002 -98.20010193 95.54650513 -98.20797729 94.32647705 C-98.15716585 86.37490482 -97.1026679 81.65253516 -92.625 75 C-85.24057996 67.77967818 -75.78851335 68.85179987 -66.15625 68.95703125 C-64.6431114 68.9626351 -63.12996731 68.96690146 -61.61682129 68.96989441 C-57.65804693 68.98128123 -53.69960926 69.01069421 -49.7409668 69.04400635 C-44.97850501 69.08027422 -40.21592986 69.0938978 -35.45336914 69.11136627 C-28.23951282 69.14033625 -21.02639344 69.19786533 -13.8125 69.25 C-13.8125 58.36 -13.8125 47.47 -13.8125 36.25 C-15.4625 35.92 -17.1125 35.59 -18.8125 35.25 C-23.84589829 30.09954593 -26.09004958 25.61645107 -26.25 18.4375 C-26.12533532 12.46826192 -24.94176986 8.60030134 -20.8125 4.25 C-14.59929643 -1.38459037 -7.97675551 -2.1271348 0 0 Z " fill="#FC6E0D" transform="translate(151.8125,34.75)"/>
<path d="M0 0 C9.13849114 4.37201195 15.41892233 11.55231479 19.41015625 20.73046875 C23.27648196 32.44840976 22.02209378 45.93783258 17.109375 57.1015625 C12.63613922 65.47587599 5.50108677 70.88114865 -3.32421875 74.18359375 C-13.88539279 76.76207437 -24.7618212 76.56266627 -34.27734375 70.9296875 C-42.55846302 64.79176755 -47.85089434 56.68181949 -50.4375 46.68359375 C-52.30813114 34.01942093 -51.24338463 21.79024515 -43.640625 11.1640625 C-32.76824673 -1.68722831 -15.78564587 -5.66800036 0 0 Z " fill="#F86E0C" transform="translate(350.828125,140.9609375)"/>
<path d="M0 0 C5.88861891 3.28729255 9.95458276 7.11168492 13.33203125 12.94140625 C13.67105469 13.52277344 14.01007813 14.10414063 14.359375 14.703125 C18.22842734 22.92263252 17.47866526 33.62313116 14.58203125 42.00390625 C11.24735901 49.80403924 7.33230766 55.53259282 -0.66796875 58.94140625 C-6.09336856 59.93628397 -11.17392622 60.17307956 -16.20703125 57.6875 C-19.40626081 55.36660438 -21.46597866 53.24439139 -23.66796875 49.94140625 C-23.99796875 59.51140625 -24.32796875 69.08140625 -24.66796875 78.94140625 C-29.61796875 78.94140625 -34.56796875 78.94140625 -39.66796875 78.94140625 C-39.66796875 53.20140625 -39.66796875 27.46140625 -39.66796875 0.94140625 C-35.04796875 0.94140625 -30.42796875 0.94140625 -25.66796875 0.94140625 C-25.66796875 3.58140625 -25.66796875 6.22140625 -25.66796875 8.94140625 C-25.00796875 8.94140625 -24.34796875 8.94140625 -23.66796875 8.94140625 C-23.35859375 8.10609375 -23.35859375 8.10609375 -23.04296875 7.25390625 C-18.10448159 -1.05173125 -8.72425133 -3.46159899 0 0 Z " fill="#F96E0C" transform="translate(421.66796875,157.05859375)"/>
<path d="M0 0 C4.92656122 2.38258031 8.85336498 4.83009367 11 10 C11.66 10 12.32 10 13 10 C13.20625 9.443125 13.4125 8.88625 13.625 8.3125 C15.51496864 5.13391638 17.85652038 2.89667507 21 1 C23.90098645 0.49830346 26.06671018 0.27806863 28.9375 0.375 C29.64680664 0.38974365 30.35611328 0.4044873 31.08691406 0.41967773 C35.68674738 0.63712247 39.28312189 1.09395805 42.60284424 4.41648865 C48.07822885 10.62219164 48.56093193 15.74378644 48.390625 23.74609375 C48.38496521 24.75720718 48.37930542 25.76832062 48.37347412 26.81007385 C48.35119521 30.01971023 48.30101377 33.22820459 48.25 36.4375 C48.22992407 38.6217286 48.21167522 40.8059748 48.1953125 42.99023438 C48.15135807 48.32725876 48.08238861 53.66343616 48 59 C43.05 59 38.1 59 33 59 C32.99589111 57.8447583 32.99178223 56.6895166 32.98754883 55.49926758 C32.96573676 51.20308131 32.91142598 46.90780821 32.84741211 42.61206055 C32.82425012 40.75472787 32.8098406 38.89726418 32.80444336 37.03979492 C32.79514038 34.365545 32.75412303 31.69335032 32.70703125 29.01953125 C32.7109639 28.19226028 32.71489655 27.36498932 32.71894836 26.51264954 C32.61120475 22.23193306 32.36416913 20.47649265 29.68237305 16.9675293 C26.20185541 14.41455836 24.22478064 14.37410657 20 15 C17.38406847 16.83115207 17.03010545 17.90968366 16 21 C15.84586124 23.87438548 15.74252715 26.72898986 15.68359375 29.60546875 C15.66281265 30.44467361 15.64203156 31.28387848 15.62062073 32.14851379 C15.55525982 34.82809294 15.49630286 37.50776969 15.4375 40.1875 C15.39430198 42.00456737 15.35068727 43.82162488 15.30664062 45.63867188 C15.1995922 50.09234799 15.09828681 54.54612226 15 59 C9.72 59 4.44 59 -1 59 C-1.02505615 57.8039917 -1.0501123 56.6079834 -1.07592773 55.37573242 C-1.17003852 50.94202805 -1.27025036 46.508479 -1.37231445 42.07495117 C-1.4156494 40.15539175 -1.45732552 38.23579415 -1.49731445 36.31616211 C-1.55505178 33.55831386 -1.61873635 30.80065759 -1.68359375 28.04296875 C-1.70030624 27.18350143 -1.71701874 26.32403412 -1.73423767 25.43852234 C-1.7641555 24.23761711 -1.7641555 24.23761711 -1.79467773 23.01245117 C-1.81799416 21.95655037 -1.81799416 21.95655037 -1.84178162 20.87931824 C-1.94481604 18.77300917 -1.94481604 18.77300917 -3 16 C-6.63782632 14.78739123 -9.17735999 14.60455448 -13 15 C-15.72184884 16.98855745 -17.65871502 18.58200983 -18.47158813 21.9593811 C-18.67461983 24.32474161 -18.71831683 26.64549972 -18.70703125 29.01953125 C-18.72215256 29.87810226 -18.73727386 30.73667328 -18.75285339 31.6212616 C-18.79569388 34.35194231 -18.80456459 37.08151686 -18.8125 39.8125 C-18.83564723 41.66864912 -18.86101305 43.524772 -18.88867188 45.38085938 C-18.95148791 49.92067054 -18.98385169 54.45979267 -19 59 C-24.28 59 -29.56 59 -35 59 C-35 40.19 -35 21.38 -35 2 C-30.05 2 -25.1 2 -20 2 C-20 3.98 -20 5.96 -20 8 C-19.34 8 -18.68 8 -18 8 C-17.814375 7.4225 -17.62875 6.845 -17.4375 6.25 C-13.59612907 0.23741941 -6.67611673 -1.48851854 0 0 Z " fill="#F7F7F7" transform="translate(845,156)"/>
<path d="M0 0 C6.6 0 13.2 0 20 0 C24.23888682 9.7838513 27.73108862 19.71197506 31.125 29.8125 C31.91450953 32.1570674 32.70530976 34.50116936 33.4994812 36.84416199 C33.98873181 38.28796222 34.47535818 39.73265564 34.95877075 41.17842102 C36.440602 45.55649215 38.14467263 49.76646296 40 54 C41.07995162 56.69415705 42.10305256 59.40836586 43.125 62.125 C43.38925781 62.81464844 43.65351562 63.50429687 43.92578125 64.21484375 C45.29278014 67.84398294 46.23421688 71.17108441 47 75 C40.73 75 34.46 75 28 75 C25.525 67.08 25.525 67.08 23 59 C14.42 59 5.84 59 -3 59 C-4.7669811 64.30094331 -6.46494491 69.62730718 -8 75 C-13.94 75 -19.88 75 -26 75 C-24.96885761 69.92360668 -23.82320114 65.18616803 -21.9140625 60.35546875 C-20.72904812 57.30177786 -19.65125932 54.21427109 -18.5625 51.125 C-17.12066796 47.06635039 -15.64187859 43.04422176 -14 39.0625 C-11.79643251 33.67401918 -10.02963757 28.15103861 -8.24609375 22.61328125 C-6.9955048 18.98696532 -5.51723769 15.52158853 -4 12 C-3.24558538 9.86291243 -2.51463548 7.71732957 -1.8125 5.5625 C-1.214375 3.726875 -0.61625 1.89125 0 0 Z " fill="#F9F9F9" transform="translate(598,140)"/>
<path d="M0 0 C0.7204248 -0.02247803 1.44084961 -0.04495605 2.18310547 -0.06811523 C7.71218348 -0.0434375 10.84483415 1.37011512 15.4375 4.4375 C16.11039063 4.88351563 16.78328125 5.32953125 17.4765625 5.7890625 C22.91560737 10.15637439 26.73888295 15.34793611 27.70800781 22.40820312 C28.41214405 31.02305427 28.2055368 38.97859095 23.4375 46.4375 C23.09847656 47.06914062 22.75945313 47.70078125 22.41015625 48.3515625 C18.84380883 54.31662758 13.00239145 56.953674 6.55078125 59.05078125 C-0.75281368 60.38729862 -9.31476593 60.79679703 -15.82421875 56.82421875 C-22.32783247 51.63594263 -27.78918822 44.89070788 -28.80175781 36.44091797 C-29.65745174 25.54396652 -28.87568516 17.19504617 -21.953125 8.390625 C-15.6060591 1.34479955 -9.0484273 0.18531521 0 0 Z " fill="#F8F8F8" transform="translate(774.5625,156.5625)"/>
<path d="M0 0 C4.35210142 2.80331088 7.87848386 6.78040522 10.1953125 11.4140625 C10.28480667 12.86443357 10.3128969 14.31884879 10.30883789 15.77197266 C10.30876236 16.67275543 10.30868683 17.57353821 10.30860901 18.50161743 C10.30344772 19.47561493 10.29828644 20.44961243 10.29296875 21.453125 C10.2915538 22.44911713 10.29013885 23.44510925 10.28868103 24.47128296 C10.28307186 27.66057303 10.2705178 30.84979356 10.2578125 34.0390625 C10.25279868 36.19791565 10.24823557 38.35676991 10.24414062 40.515625 C10.23309945 45.81513107 10.21582864 51.11458498 10.1953125 56.4140625 C5.2453125 56.4140625 0.2953125 56.4140625 -4.8046875 56.4140625 C-4.8046875 54.4340625 -4.8046875 52.4540625 -4.8046875 50.4140625 C-5.43117188 50.83558594 -6.05765625 51.25710937 -6.703125 51.69140625 C-7.52039063 52.23925781 -8.33765625 52.78710938 -9.1796875 53.3515625 C-9.99179687 53.89683594 -10.80390625 54.44210938 -11.640625 55.00390625 C-17.19411825 58.62269878 -23.35028654 57.94335278 -29.8046875 57.4140625 C-34.85408552 55.06348066 -38.30434672 51.41474406 -40.8046875 46.4140625 C-42.1307361 34.93168716 -42.1307361 34.93168716 -39.41796875 29.78125 C-35.67052554 25.37536232 -32.04302057 22.68852252 -26.12573242 22.18701172 C-24.71964722 22.20272217 -24.71964722 22.20272217 -23.28515625 22.21875 C-21.7527832 22.22841797 -21.7527832 22.22841797 -20.18945312 22.23828125 C-19.13435547 22.25503906 -18.07925781 22.27179688 -16.9921875 22.2890625 C-15.91775391 22.29808594 -14.84332031 22.30710938 -13.73632812 22.31640625 C-11.09235198 22.33990826 -8.4484909 22.37577733 -5.8046875 22.4140625 C-6.1346875 19.1140625 -6.4646875 15.8140625 -6.8046875 12.4140625 C-10.9263954 10.41565867 -14.2449627 10.07630511 -18.8046875 10.4140625 C-22.2307136 12.21226066 -22.2307136 12.21226066 -22.8046875 16.4140625 C-27.7546875 16.4140625 -32.7046875 16.4140625 -37.8046875 16.4140625 C-37.8046875 10.12203232 -37.55013836 9.04659383 -33.8046875 4.4140625 C-24.68877532 -4.30550567 -11.36261026 -5.21255058 0 0 Z " fill="#F5F5F5" transform="translate(941.8046875,158.5859375)"/>
<path d="M0 0 C6.90254426 3.82280986 11.79410884 8.37993556 14.6875 15.8125 C15.75 20.5 15.75 20.5 15.75 31.5 C2.55 31.5 -10.65 31.5 -24.25 31.5 C-22.61612489 37.65883677 -22.61612489 37.65883677 -20.25 43.5 C-15.35435156 45.13188281 -10.35286698 45.15888667 -5.25 44.5 C-4.46625 43.675 -3.6825 42.85 -2.875 42 C0.5803709 38.70917057 2.37355303 39.16407869 7.0625 39.1875 C9.29265677 39.26772147 11.52252674 39.36436225 13.75 39.5 C13.0130213 45.51442389 11.24064223 48.52973262 6.75 52.5 C-1.74440645 57.82102442 -10.81883192 58.89332107 -20.625 56.75 C-28.11818941 54.16614158 -31.98348644 49.91769687 -36.25 43.5 C-36.79398437 42.77039063 -37.33796875 42.04078125 -37.8984375 41.2890625 C-39.77238307 37.42201874 -39.74296249 34.05802174 -39.6875 29.8125 C-39.67992676 29.01030029 -39.67235352 28.20810059 -39.66455078 27.3815918 C-39.49058491 21.10675715 -38.56532179 15.93170646 -35.25 10.5 C-34.86070312 9.85933594 -34.47140625 9.21867188 -34.0703125 8.55859375 C-25.92875152 -2.59389954 -12.13703841 -5.49487809 0 0 Z " fill="#F56D0C" transform="translate(485.25,158.5)"/>
<path d="M0 0 C1.95045515 1.21204192 3.62974342 2.50952159 5.35546875 4.01953125 C6.24234375 4.57640625 7.12921875 5.13328125 8.04296875 5.70703125 C15.8919023 13.5559648 15.35546875 20.66076114 15.35546875 32.01953125 C2.48546875 32.01953125 -10.38453125 32.01953125 -23.64453125 32.01953125 C-22.01065614 38.17836802 -22.01065614 38.17836802 -19.64453125 44.01953125 C-16.66289807 45.01340898 -14.39459879 45.28322747 -11.26953125 45.39453125 C-10.33367188 45.44351563 -9.3978125 45.4925 -8.43359375 45.54296875 C-5.40516955 45.25763494 -5.40516955 45.25763494 -3.28125 42.515625 C-0.33380048 39.72537279 1.13138149 39.48262516 5.12695312 39.58007812 C6.13725586 39.64291992 6.13725586 39.64291992 7.16796875 39.70703125 C7.86083984 39.72958984 8.55371094 39.75214844 9.26757812 39.77539062 C10.96448448 39.83390464 12.66026736 39.92357645 14.35546875 40.01953125 C13.17721035 45.53034396 10.77389466 50.31535548 6.09375 53.61328125 C3.8788408 54.84021968 1.6571481 55.96591379 -0.64453125 57.01953125 C-1.63453125 57.51453125 -1.63453125 57.51453125 -2.64453125 58.01953125 C-5.22167562 58.17129966 -7.75379603 58.25093262 -10.33203125 58.26953125 C-11.02748047 58.29015625 -11.72292969 58.31078125 -12.43945312 58.33203125 C-19.54335334 58.38509493 -25.29110578 55.88708784 -31.00390625 51.6796875 C-37.88861196 44.71302101 -39.00396947 35.27579764 -39.02514648 25.99658203 C-38.86541476 17.968257 -37.01434752 12.67429522 -31.51953125 6.71484375 C-23.24091528 -1.14424776 -11.01996736 -4.08568952 0 0 Z " fill="#F7F7F7" transform="translate(1033.64453125,157.98046875)"/>
<path d="M0 0 C5.28 0 10.56 0 16 0 C16.00410889 1.1552417 16.00821777 2.3104834 16.01245117 3.50073242 C16.03426324 7.79691869 16.08857402 12.09219179 16.15258789 16.38793945 C16.17574988 18.24527213 16.1901594 20.10273582 16.19555664 21.96020508 C16.20485962 24.634455 16.24587697 27.30664968 16.29296875 29.98046875 C16.2890361 30.80773972 16.28510345 31.63501068 16.28105164 32.48735046 C16.38890635 36.77248085 16.63239085 38.52123973 19.32543945 42.02856445 C21.92882745 44.2626833 21.92882745 44.2626833 25.5 44.5625 C29.50538252 43.91877781 31.15945826 42.84054174 34 40 C35.60951543 36.78096915 35.24234748 33.25161168 35.31640625 29.7109375 C35.33718735 28.89251373 35.35796844 28.07408997 35.37937927 27.23086548 C35.44484812 24.61233034 35.50374726 21.99369361 35.5625 19.375 C35.60568776 17.60155193 35.64930214 15.82811419 35.69335938 14.0546875 C35.80052676 9.70322954 35.90180169 5.35166923 36 1 C41.28 1 46.56 1 52 1 C52 19.81 52 38.62 52 58 C47.05 58 42.1 58 37 58 C37 55.69 37 53.38 37 51 C36.06027344 51.74056641 36.06027344 51.74056641 35.1015625 52.49609375 C34.28429687 53.13675781 33.46703125 53.77742188 32.625 54.4375 C31.81289063 55.07558594 31.00078125 55.71367187 30.1640625 56.37109375 C25.2262233 60.08784275 19.980713 59.51438738 14 59 C8.71129863 57.6560704 6.42327583 54.45829939 3.625 49.9375 C1.31527503 45.83063608 -0.12776504 42.54575774 -0.11352539 37.80395508 C-0.11344986 36.96331009 -0.11337433 36.1226651 -0.11329651 35.25654602 C-0.10813522 34.35333115 -0.10297394 33.45011627 -0.09765625 32.51953125 C-0.0962413 31.59154221 -0.09482635 30.66355316 -0.09336853 29.70744324 C-0.08776937 26.74242942 -0.07521704 23.77749101 -0.0625 20.8125 C-0.05748489 18.80273547 -0.052922 16.79296975 -0.04882812 14.78320312 C-0.03780021 9.85543968 -0.02053617 4.92773263 0 0 Z " fill="#F6F6F6" transform="translate(649,157)"/>
<path d="M0 0 C4.56570732 2.5026315 7.39487806 5.30576018 9.75 9.9375 C10.26796143 10.93269653 10.26796143 10.93269653 10.79638672 11.94799805 C12.15044208 16.19285415 11.99650019 20.18559564 11.9453125 24.61328125 C11.9424826 25.5384404 11.93965271 26.46359955 11.93673706 27.41679382 C11.92557392 30.36132942 11.90047637 33.30555688 11.875 36.25 C11.86496521 38.25064664 11.85584023 40.25129806 11.84765625 42.25195312 C11.82564722 47.1472535 11.79114391 52.04232457 11.75 56.9375 C6.47 56.9375 1.19 56.9375 -4.25 56.9375 C-4.2593457 55.77702148 -4.26869141 54.61654297 -4.27832031 53.42089844 C-4.31821876 49.11175269 -4.38397684 44.80332101 -4.45751953 40.49462891 C-4.48573006 38.63046447 -4.50694421 36.7661804 -4.52099609 34.90185547 C-4.54242484 32.22040559 -4.58907298 29.54039414 -4.640625 26.859375 C-4.64185364 26.02694275 -4.64308228 25.1945105 -4.64434814 24.33685303 C-4.75547019 19.52804875 -4.75547019 19.52804875 -7.16308594 15.44238281 C-10.99840664 12.67671636 -13.49687805 12.39205978 -18.25 12.9375 C-21.65879215 14.83578428 -24.67098894 17.14625678 -25.89962769 20.94720459 C-26.15419094 23.26848294 -26.19393432 25.50119477 -26.15234375 27.8359375 C-26.17078087 29.08837753 -26.17078087 29.08837753 -26.18959045 30.36611938 C-26.22121832 33.01581754 -26.20507534 35.66271724 -26.1875 38.3125 C-26.20061513 40.11591117 -26.21685806 41.91930249 -26.23632812 43.72265625 C-26.27709385 48.12819807 -26.27504285 52.53186065 -26.25 56.9375 C-31.2 56.9375 -36.15 56.9375 -41.25 56.9375 C-41.25 38.1275 -41.25 19.3175 -41.25 -0.0625 C-36.63 -0.0625 -32.01 -0.0625 -27.25 -0.0625 C-27.25 2.5775 -27.25 5.2175 -27.25 7.9375 C-26.59 7.9375 -25.93 7.9375 -25.25 7.9375 C-24.940625 7.1021875 -24.940625 7.1021875 -24.625 6.25 C-19.06230055 -3.10544907 -9.18686911 -4.18833345 0 0 Z " fill="#F66D0C" transform="translate(552.25,158.0625)"/>
<path d="M0 0 C5.46378228 5.61145207 6.72085807 11.59840571 6.8125 19.3125 C6.70635821 26.81028628 5.7611096 33.55801619 0.59375 39.27734375 C-4.86218891 44.19000061 -9.43473126 44.73100836 -16.671875 44.65234375 C-21.13770062 44.24162663 -23.16549704 43.16325234 -26.6875 40.375 C-31.7703167 33.91844906 -33.0329887 28.55236311 -33 20.5625 C-33.01611328 19.79357422 -33.03222656 19.02464844 -33.04882812 18.23242188 C-33.05427771 11.77466048 -32.00563123 6.15009345 -27.78515625 1.09765625 C-27.11355469 0.54980469 -26.44195312 0.00195312 -25.75 -0.5625 C-25.08097656 -1.12839844 -24.41195313 -1.69429687 -23.72265625 -2.27734375 C-15.97315096 -7.40897393 -7.25301489 -4.38554389 0 0 Z " fill="#050302" transform="translate(349.6875,157.625)"/>
<path d="M0 0 C5.28 0 10.56 0 16 0 C16 4.95 16 9.9 16 15 C19.3 15 22.6 15 26 15 C26 18.96 26 22.92 26 27 C22.7 27 19.4 27 16 27 C16.09346313 31.23623542 16.19953913 35.47190851 16.31738281 39.70751953 C16.35569674 41.1488374 16.39054543 42.59025168 16.421875 44.03173828 C16.46747446 46.10223886 16.52547444 48.17207433 16.5859375 50.2421875 C16.63306885 52.11173096 16.63306885 52.11173096 16.68115234 54.01904297 C16.69682309 57.11541776 16.69682309 57.11541776 19 59 C21.32275177 59.40047444 23.65739357 59.7397104 26 60 C26.495 65.94 26.495 65.94 27 72 C20.74987767 73.56253058 13.86517045 74.43895195 8 71.25 C5.33721905 69.25291429 3.67877613 67.82741244 2 65 C1.64953613 64.45569336 1.29907227 63.91138672 0.93798828 63.35058594 C-0.37854258 60.05137741 -0.24676294 56.88554056 -0.1953125 53.390625 C-0.19106766 52.30041046 -0.19106766 52.30041046 -0.18673706 51.18817139 C-0.17557523 48.87527749 -0.15047851 46.56277612 -0.125 44.25 C-0.11496501 42.67839102 -0.10584006 41.10677596 -0.09765625 39.53515625 C-0.07564904 35.68995378 -0.04114715 31.84504336 0 28 C-2.31 28 -4.62 28 -7 28 C-7 23.38 -7 18.76 -7 14 C-4.69 14 -2.38 14 0 14 C0 9.38 0 4.76 0 0 Z " fill="#F6F6F6" transform="translate(714,143)"/>
<path d="M0 0 C4.95 0 9.9 0 15 0 C15 4.95 15 9.9 15 15 C18.3 15 21.6 15 25 15 C25 18.96 25 22.92 25 27 C21.7 27 18.4 27 15 27 C15.11833202 31.21771839 15.24258602 35.43520823 15.37231445 39.65258789 C15.41560793 41.08711003 15.45728699 42.52168184 15.49731445 43.95629883 C15.55515267 46.0191952 15.61880753 48.08184283 15.68359375 50.14453125 C15.72025146 51.38565674 15.75690918 52.62678223 15.79467773 53.90551758 C15.87144121 57.03553347 15.87144121 57.03553347 17 60 C19.64 60 22.28 60 25 60 C25.495 65.94 25.495 65.94 26 72 C20.02802144 73.99065952 13.33207042 74.01763073 7.5625 71.5 C2.33555146 66.40053801 -0.22243038 62.59940773 -0.47364807 55.01745605 C-0.49879074 51.17521592 -0.41733655 47.34057814 -0.3125 43.5 C-0.28738499 41.89847232 -0.26457746 40.29690671 -0.24414062 38.6953125 C-0.1893986 34.79592864 -0.10330853 30.89838715 0 27 C-2.31 27 -4.62 27 -7 27 C-7 23.04 -7 19.08 -7 15 C-4.69 15 -2.38 15 0 15 C0 10.05 0 5.1 0 0 Z " fill="#FCFCFC" transform="translate(964,143)"/>
<path d="M0 0 C5.34818345 2.47404517 9.8313236 5.98292904 13 11 C14.82773931 16.73359317 15.25036312 23.78329819 13.05859375 29.421875 C9.60943211 35.17408188 5.3707851 38.81149158 -1 41 C-6.25621159 41.65798282 -10.64376258 41.66578928 -15.4375 39.3125 C-20.04350696 35.15585957 -23.66908212 31.12448047 -24.3359375 24.828125 C-24.48432584 11.23575341 -24.48432584 11.23575341 -20 6 C-14.15125493 0.36967279 -8.01849566 -1.74214798 0 0 Z " fill="#FEFCFB" transform="translate(188,154)"/>
<path d="M0 0 C5.15229997 5.0181837 7.1646268 8.35586488 7.3125 15.625 C7.24982111 23.27182456 6.03555731 27.96444269 0.625 33.375 C-5.25378847 37.01425001 -11.18598013 38.01104468 -18 37 C-22.95513717 35.06965091 -27.24985493 31.68709141 -30.16015625 27.21875 C-32.70814819 20.48731083 -31.85890067 11.53463009 -29 5 C-20.94302226 -4.32913212 -10.62771941 -7.55992412 0 0 Z " fill="#FEFCFB" transform="translate(117,158)"/>
<path d="M0 0 C0 18.81 0 37.62 0 57 C-14.44444444 57 -14.44444444 57 -18.6328125 52.99609375 C-23.65501735 45.66367467 -23.52718533 38.34069641 -23.50097656 29.75732422 C-23.50000212 27.504892 -23.54173359 25.25584979 -23.5859375 23.00390625 C-23.68619534 10.98822926 -23.68619534 10.98822926 -20.6640625 6.62109375 C-13.60742709 -0.32172496 -10.611583 0 0 0 Z " fill="#F66D0C" transform="translate(43,156)"/>
<path d="M0 0 C12.61538462 0 12.61538462 0 18.75 5.4375 C24.07433876 11.50133025 23.40580196 17.77481894 23.42553711 25.47924805 C23.43737139 27.66376014 23.48651589 29.84538577 23.53710938 32.02929688 C23.62902888 39.92268705 23.31507808 46.67855545 18 53 C12.57502801 58.17647959 7.75969795 57 0 57 C0 38.19 0 19.38 0 0 Z " fill="#F86D0C" transform="translate(245,156)"/>
<path d="M0 0 C3.37228258 2.0559641 6.21943128 4.43886256 8 8 C8.1501182 10.41343878 8.2215537 12.8320643 8.25 15.25 C8.27578125 16.55453125 8.3015625 17.8590625 8.328125 19.203125 C7.86176803 24.59954133 6.36201557 27.79635834 2.3125 31.375 C-2.06651985 33.52319842 -4.15815544 33.69169208 -9 33 C-13.2784011 29.6723547 -16.63895097 25.59813713 -17.3984375 20.1328125 C-17.33957376 12.5786321 -16.99070131 7.43051033 -11.875 1.5625 C-7.83698127 -0.6320754 -4.49068261 -1.0422062 0 0 Z " fill="#060302" transform="translate(414,170)"/>
<path d="M0 0 C3.55085022 1.94772375 5.76051607 4.6407741 8 8 C8.70653189 15.30388814 9.10380073 22.70750555 5 29 C1.78969989 31.84549328 -0.26513816 32.8818972 -4.5 33.5625 C-9.01155641 32.83742843 -10.86744336 31.27825695 -14 28 C-16.14037065 23.86535908 -16.32849052 20.18089097 -16.375 15.5625 C-16.40335938 14.28503906 -16.43171875 13.00757813 -16.4609375 11.69140625 C-15.925968 7.40711659 -14.70893913 5.32016186 -12 2 C-7.9746958 -0.68353614 -4.73124361 -0.80737946 0 0 Z " fill="#060606" transform="translate(778,170)"/>
<path d="M0 0 C0.66 0 1.32 0 2 0 C3.34065238 3.93504649 4.67126071 7.87341646 6 11.8125 C6.3815625 12.93205078 6.763125 14.05160156 7.15625 15.20507812 C7.69765625 16.81479492 7.69765625 16.81479492 8.25 18.45703125 C8.58515625 19.44678955 8.9203125 20.43654785 9.265625 21.45629883 C10 24 10 24 10 27 C4.06 27 -1.88 27 -8 27 C-6.86422538 21.13183114 -5.26216718 15.94692101 -2.953125 10.44140625 C-1.61580011 7.01588143 -0.7969925 3.58646625 0 0 Z " fill="#151414" transform="translate(607,159)"/>
<path d="M0 0 C0.74507812 0.01353516 1.49015625 0.02707031 2.2578125 0.04101562 C4.08885416 0.07622796 5.91952169 0.13003149 7.75 0.1875 C7.9765625 6.8359375 7.9765625 6.8359375 5.9375 10 C2.77128745 13.16621255 0.74289819 14.47758652 -3.6875 14.5 C-6.44434355 14.41469051 -8.22164941 14.19856365 -10.8125 13.1875 C-12.75273011 10.48804941 -12.73184169 8.38594874 -12.78125 5.125 C-12.25 3.1875 -12.25 3.1875 -10.734375 1.44921875 C-7.20271891 -0.34437388 -3.85981097 -0.13297935 0 0 Z " fill="#080808" transform="translate(928.25,190.8125)"/>
<path d="M0 0 C4.60744148 1.80291188 6.56855621 4.76748674 9 9 C9 9.66 9 10.32 9 11 C0.42 11 -8.16 11 -17 11 C-13.75234866 1.25704599 -9.9804139 -1.48223969 0 0 Z " fill="#090402" transform="translate(478,169)"/>
<path d="M0 0 C2.85246578 1.36023016 3.8695106 2.48711507 6 5 C6.33 6.98 6.66 8.96 7 11 C-0.59 11 -8.18 11 -16 11 C-16 5.22651934 -16 5.22651934 -13.625 2.6875 C-9.55941332 -1.03125938 -5.23094486 -1.12757807 0 0 Z " fill="#090909" transform="translate(1027,169)"/>
<path d="M0 0 C0.66 0.33 1.32 0.66 2 1 C1.43410156 1.45753662 0.86820313 1.91507324 0.28515625 2.38647461 C-4.74314283 7.08835401 -6.73991996 11.00962184 -7 17.87890625 C-7.06582833 20.77580996 -7.04029498 23.66541865 -7 26.5625 C-7.00810562 28.06317491 -7.01979546 29.56383494 -7.03515625 31.06445312 C-7.06476813 34.7103903 -7.04586389 38.35413949 -7 42 C-7.33 42 -7.66 42 -8 42 C-8.1242965 37.42856598 -8.21466121 32.85813122 -8.2746582 28.28540039 C-8.29968689 26.73249155 -8.33372131 25.17969916 -8.37719727 23.62719727 C-8.77471439 9.05936385 -8.77471439 9.05936385 -5.66796875 4.56640625 C-3 2 -3 2 0 0 Z " fill="#E56609" transform="translate(28,158)"/>
<path d="M0 0 C0.33 0.66 0.66 1.32 1 2 C-1.54405145 6.77009646 -3.64505014 8.93364403 -8.828125 10.609375 C-12.41825894 11.25508254 -15.4361511 10.70004175 -19 10 C-19 9.67 -19 9.34 -19 9 C-18.35933594 8.90203125 -17.71867187 8.8040625 -17.05859375 8.703125 C-11.21981554 7.6937386 -6.8981313 6.36746527 -2 3 C-1.34 2.01 -0.68 1.02 0 0 Z " fill="#FC7C26" transform="translate(121,186)"/>
<path d="M0 0 C0.66 0.33 1.32 0.66 2 1 C1.5155542 1.35360596 1.0311084 1.70721191 0.53198242 2.0715332 C-1.72977109 4.91863934 -1.43579535 7.25669937 -1.51171875 10.85546875 C-1.52966995 11.51710526 -1.54762115 12.17874176 -1.56611633 12.86042786 C-1.62020898 14.96938747 -1.65410931 17.07812099 -1.6875 19.1875 C-1.72067427 20.61917208 -1.75516405 22.05081433 -1.79101562 23.48242188 C-1.87593257 26.9880639 -1.94274921 30.49378473 -2 34 C-2.33 34 -2.66 34 -3 34 C-3.07406517 29.4793661 -3.12856045 24.959084 -3.16479492 20.43798828 C-3.17989711 18.89951426 -3.20038046 17.36108339 -3.22631836 15.82275391 C-3.26264074 13.61349859 -3.27971119 11.40481152 -3.29296875 9.1953125 C-3.30845261 8.50567413 -3.32393646 7.81603577 -3.33988953 7.10549927 C-3.34057617 5.16455078 -3.34057617 5.16455078 -3 2 C-2.01 1.34 -1.02 0.68 0 0 Z " fill="#451B05" transform="translate(153,70)"/>
<path d="M0 0 C-0.680625 0.37125 -1.36125 0.7425 -2.0625 1.125 C-5.68069009 3.43448304 -8.80033575 6.15073126 -12 9 C-11.70179167 5.42150008 -11.25754642 4.23773516 -8.5625 1.75 C-5.04800094 -0.6501457 -4.03595292 -1.21078588 0 0 Z " fill="#E0650A" transform="translate(70,106)"/>
<path d="M0 0 C0.33 0 0.66 0 1 0 C0.67 6.93 0.34 13.86 0 21 C-0.33 21 -0.66 21 -1 21 C-1.22212255 18.25048307 -1.42815588 15.50134388 -1.625 12.75 C-1.68945312 11.97269531 -1.75390625 11.19539062 -1.8203125 10.39453125 C-2.30707097 3.27568856 -2.30707097 3.27568856 0 0 Z " fill="#DA5F08" transform="translate(317,164)"/>
<path d="M0 0 C-1 3 -1 3 -2.9375 4.875 C-5.14791243 7.15239462 -6.00569366 9.01708098 -7 12 C-7.66 10.68 -8.32 9.36 -9 8 C-8.21366078 6.85050412 -7.42073742 5.70551011 -6.625 4.5625 C-6.18414062 3.92441406 -5.74328125 3.28632813 -5.2890625 2.62890625 C-3.63708041 0.54140161 -2.66927652 0 0 0 Z " fill="#FC751A" transform="translate(172,156)"/>
<path d="M0 0 C0.99 0 1.98 0 3 0 C1.48328036 4.55015893 -2.16891053 6.50057264 -6 9 C-6 8.01 -6 7.02 -6 6 C-4.37064759 4.62131719 -2.70250393 3.28725907 -1 2 C-0.67 1.34 -0.34 0.68 0 0 Z " fill="#EA6B09" transform="translate(429,206)"/>
<path d="M0 0 C0.66 0.33 1.32 0.66 2 1 C1.21625 1.9075 0.4325 2.815 -0.375 3.75 C-2.30052496 6.05190236 -3.82205741 8.21577207 -5 11 C-5.66 11 -6.32 11 -7 11 C-5.5140084 6.40693504 -3.14985318 3.56430755 0 0 Z " fill="#D96209" transform="translate(456,162)"/>
<path d="M0 0 C2.875 0.3125 2.875 0.3125 6 1 C6.66 1.99 7.32 2.98 8 4 C7.67 4.99 7.34 5.98 7 7 C5.83040013 6.02433888 4.66438823 5.044375 3.5 4.0625 C2.8503125 3.51722656 2.200625 2.97195312 1.53125 2.41015625 C1.0259375 1.94480469 0.520625 1.47945312 0 1 C0 0.67 0 0.34 0 0 Z " fill="#FA7720" transform="translate(192,156)"/>
<path d="M0 0 C0.66 0.33 1.32 0.66 2 1 C-0.64 3.64 -3.28 6.28 -6 9 C-6 6 -6 6 -3.5625 3.375 C-2.716875 2.59125 -1.87125 1.8075 -1 1 C-0.67 0.67 -0.34 0.34 0 0 Z " fill="#FDE7D6" transform="translate(173,156)"/>
<path d="M0 0 C2.4375 1.25 2.4375 1.25 5 3 C5.33 4.32 5.66 5.64 6 7 C3.36 5.35 0.72 3.7 -2 2 C-1.34 1.34 -0.68 0.68 0 0 Z " fill="#FB7A24" transform="translate(114,154)"/>
<path d="M0 0 C-0.53625 0.2475 -1.0725 0.495 -1.625 0.75 C-4.56424252 2.29696975 -7.25754408 4.13014369 -10 6 C-9.6875 4.125 -9.6875 4.125 -9 2 C-5.5647952 -0.29013653 -4.014669 -0.17842973 0 0 Z " fill="#FA7921" transform="translate(101,154)"/>
</svg>
