<?xml version="1.0" encoding="UTF-8"?>
<svg version="1.1" xmlns="http://www.w3.org/2000/svg" width="1069" height="312">
<path d="M0 0 C352.77 0 705.54 0 1069 0 C1069 102.96 1069 205.92 1069 312 C716.23 312 363.46 312 0 312 C0 209.04 0 106.08 0 0 Z " fill="#FAFAFA" transform="translate(0,0)"/>
<path d="M0 0 C4.56885682 2.69977903 7.8850351 7.25679396 9.890625 12.1171875 C10.8711529 18.10406457 10.49391688 22.94836015 7.203125 28.1171875 C4.81279835 31.27603525 2.61719144 33.56445148 -1.109375 35.1171875 C-1.769375 35.1171875 -2.429375 35.1171875 -3.109375 35.1171875 C-3.109375 45.6771875 -3.109375 56.2371875 -3.109375 67.1171875 C1.69496094 67.07078125 6.49929687 67.024375 11.44921875 66.9765625 C14.50718329 66.95610533 17.56506253 66.93684837 20.62304688 66.921875 C25.46852309 66.89803609 30.3136947 66.86994647 35.15893555 66.81542969 C39.06877526 66.77171692 42.97828797 66.74799728 46.88835335 66.73767853 C48.37419845 66.73033244 49.86002724 66.71598791 51.34573174 66.69426727 C66.94963176 66.47537785 66.94963176 66.47537785 73.890625 71.1171875 C78.12057094 75.4555936 80.13776135 79.28142144 80.15132141 85.33454895 C80.15840622 86.3901149 80.16549103 87.44568085 80.17279053 88.53323364 C80.17031311 89.68604828 80.16783569 90.83886292 80.1652832 92.02661133 C80.17039413 93.24490128 80.17550507 94.46319122 80.18077087 95.71839905 C80.192291 99.05745056 80.19473999 102.39625386 80.19220757 105.73530793 C80.19113709 108.52588169 80.19602343 111.31643262 80.200813 114.10700148 C80.21190719 120.69382893 80.21234667 127.28059937 80.20629883 133.86743164 C80.20026383 140.6532296 80.21255806 147.43881996 80.2338689 154.22458249 C80.25151079 160.05743408 80.25748203 165.89021976 80.25423115 171.72309703 C80.25242162 175.20367271 80.25502096 178.68410044 80.26894569 182.16465187 C80.28390687 186.04971005 80.27453125 189.93450612 80.26293945 193.81958008 C80.27058319 194.96632202 80.27822693 196.11306396 80.28610229 197.29455566 C80.24081077 204.1649847 79.98675382 209.86560452 75.0234375 215.078125 C74.36085937 215.54476562 73.69828125 216.01140625 73.015625 216.4921875 C72.35820312 216.97429687 71.70078125 217.45640625 71.0234375 217.953125 C66.78827114 220.26462605 62.38132687 220.24472422 57.64187622 220.25762939 C55.75355576 220.26619461 55.75355576 220.26619461 53.8270874 220.27493286 C52.43957529 220.27617805 51.05206307 220.27730318 49.66455078 220.27832031 C48.19735592 220.2829517 46.73016225 220.28797679 45.26296997 220.29336548 C41.28358456 220.30645863 37.30421599 220.31292813 33.32481241 220.31737614 C30.83704179 220.3203112 28.34927573 220.32441677 25.86150742 220.32888031 C18.07298623 220.34254568 10.28447553 220.35221764 2.49594319 220.3560822 C-6.48620338 220.36056397 -15.46819786 220.37812139 -24.45029819 220.4070828 C-31.39992326 220.42871114 -38.34950557 220.43878706 -45.29916394 220.44012332 C-49.44706968 220.44117031 -53.59483226 220.44705574 -57.74270248 220.46494293 C-61.64483486 220.48144413 -65.54671674 220.48356928 -69.44887161 220.47480392 C-70.87789329 220.47403471 -72.30692856 220.4783611 -73.73591614 220.48826218 C-83.51061733 220.55199719 -90.78374718 220.23932566 -98.109375 213.1171875 C-102.17356798 206.44029904 -102.25755595 199.79794516 -102.23876953 192.21972656 C-102.24052185 191.34377838 -102.24227417 190.4678302 -102.24407959 189.56533813 C-102.24847552 186.67114266 -102.24556293 183.7770086 -102.2421875 180.8828125 C-102.24286239 178.84617094 -102.24383396 176.80952947 -102.24508667 174.77288818 C-102.2465616 170.49246457 -102.24442009 166.21206181 -102.23974609 161.93164062 C-102.23412041 156.52355508 -102.23740039 151.11551936 -102.24315262 145.70743561 C-102.27815728 107.8122385 -102.27815728 107.8122385 -101.7890625 91.4765625 C-101.76707794 90.47175842 -101.74509338 89.46695435 -101.72244263 88.43170166 C-101.49102433 82.44100649 -100.59983016 77.93930134 -96.49609375 73.2890625 C-95.93535156 72.81984375 -95.37460938 72.350625 -94.796875 71.8671875 C-94.24386719 71.38765625 -93.69085938 70.908125 -93.12109375 70.4140625 C-88.32619895 67.32298469 -83.59983169 66.86992953 -78.00244141 66.89013672 C-77.31881531 66.88984467 -76.63518921 66.88955261 -75.93084717 66.88925171 C-73.69074423 66.8906354 -71.45098171 66.90615066 -69.2109375 66.921875 C-67.65009747 66.92560856 -66.08925508 66.92845391 -64.52841187 66.93045044 C-60.4348902 66.93805992 -56.3415121 66.95768513 -52.24804688 66.9798584 C-47.3287401 67.0039867 -42.40938512 67.01311061 -37.49003601 67.02476501 C-30.02971605 67.04411128 -22.56971065 67.08245236 -15.109375 67.1171875 C-15.109375 56.5571875 -15.109375 45.9971875 -15.109375 35.1171875 C-17.089375 34.4571875 -19.069375 33.7971875 -21.109375 33.1171875 C-25.68008235 29.5914923 -28.06349597 25.08569656 -28.984375 19.4453125 C-29.29910567 13.58345376 -28.05932458 8.88408027 -24.421875 4.2421875 C-17.66425026 -2.80995841 -8.71380661 -3.60216415 0 0 Z " fill="#FE7A18" transform="translate(156.109375,48.8828125)"/>
<path d="M0 0 C0.83635986 0.00757324 1.67271973 0.01514648 2.53442383 0.02294922 C8.89954064 0.19268567 14.10768677 1.08956513 19.625 4.4375 C20.69427734 5.07365234 20.69427734 5.07365234 21.78515625 5.72265625 C29.45188654 10.86724723 34.04309239 18.21783095 36.15625 27.1484375 C38.0933973 40.74075441 37.58158697 53.95417326 29.34375 65.40234375 C23.52409977 72.29333868 15.54755113 76.6183506 6.56591797 77.68115234 C-5.22381339 78.60436667 -15.51085731 77.22766654 -25.125 69.75 C-27.375 67.4375 -27.375 67.4375 -27.375 65.4375 C-28.035 65.4375 -28.695 65.4375 -29.375 65.4375 C-30.36169759 63.54557525 -31.3390602 61.64878022 -32.3125 59.75 C-33.13041016 58.16638672 -33.13041016 58.16638672 -33.96484375 56.55078125 C-38.17171881 47.26302663 -37.72194999 33.97982852 -35.69140625 24.1171875 C-34.77595237 21.69370378 -33.75147694 19.62871407 -32.375 17.4375 C-31.95089844 16.72722656 -31.52679688 16.01695312 -31.08984375 15.28515625 C-23.9520725 4.60832294 -12.48870156 -0.15854674 0 0 Z " fill="#FE7918" transform="translate(336.375,140.5625)"/>
<path d="M0 0 C6.50695017 4.89435817 9.78398376 12.95620566 10.984375 20.8515625 C11.61002555 30.58552103 10.47725989 39.58656747 4.984375 47.8515625 C0.92866997 52.42326054 -3.93409307 55.80958668 -10.015625 56.8515625 C-17.64775397 57.07854031 -23.81460281 56.43492673 -30.015625 51.8515625 C-31.005625 50.8615625 -31.995625 49.8715625 -33.015625 48.8515625 C-33.345625 58.4215625 -33.675625 67.9915625 -34.015625 77.8515625 C-38.965625 77.8515625 -43.915625 77.8515625 -49.015625 77.8515625 C-49.16862498 67.43819623 -49.31738613 57.02479347 -49.4585886 46.61126041 C-49.52431904 41.77636051 -49.59194113 36.94150219 -49.66381836 32.10668945 C-49.73305565 27.4448463 -49.79741283 22.78295946 -49.85832024 18.12100029 C-49.88248145 16.33829723 -49.90843081 14.55561753 -49.93615913 12.77296638 C-49.9745598 10.28496074 -50.00672349 7.79694957 -50.03735352 5.30883789 C-50.05029953 4.56437408 -50.06324554 3.81991028 -50.07658386 3.05288696 C-50.09467865 1.31908749 -50.06080029 -0.41513222 -50.015625 -2.1484375 C-48.07639448 -4.08766802 -44.65022905 -3.36710222 -42.078125 -3.3984375 C-40.81097656 -3.42421875 -39.54382813 -3.45 -38.23828125 -3.4765625 C-36.64306641 -3.31414062 -36.64306641 -3.31414062 -35.015625 -3.1484375 C-32.8636813 0.07947805 -32.81476057 1.13557059 -33.015625 4.8515625 C-32.355625 3.9234375 -31.695625 2.9953125 -31.015625 2.0390625 C-23.30602809 -7.14730227 -9.51870025 -5.42344549 0 0 Z " fill="#FE7918" transform="translate(430.015625,162.1484375)"/>
<path d="M0 0 C3.10398978 -0.08710289 6.20766548 -0.14042309 9.3125 -0.1875 C10.19357422 -0.21263672 11.07464844 -0.23777344 11.98242188 -0.26367188 C13.25375977 -0.27817383 13.25375977 -0.27817383 14.55078125 -0.29296875 C15.33106689 -0.3086792 16.11135254 -0.32438965 16.9152832 -0.34057617 C19.58004656 0.09476109 20.25871781 0.9766003 22 3 C23.1445887 5.69737832 24.16638616 8.35286595 25.1328125 11.11328125 C25.43107941 11.94451004 25.72934631 12.77573883 26.03665161 13.63215637 C27.03324339 16.41838307 28.01676136 19.20903553 29 22 C29.7141105 24.00714381 30.42863831 26.01413919 31.14355469 28.02099609 C33.02534352 33.31758499 34.88550569 38.62147316 36.73632812 43.92895508 C37.50274564 46.12221722 38.27266919 48.314257 39.04589844 50.50512695 C40.18157075 53.72342047 41.30676124 56.94520909 42.4296875 60.16796875 C42.94678787 61.62435005 42.94678787 61.62435005 43.47433472 63.1101532 C45.32104197 68.45284208 46.53025944 73.3618706 47 79 C44.56131832 79.1079859 42.12740867 79.18726589 39.6875 79.25 C38.99720703 79.28351563 38.30691406 79.31703125 37.59570312 79.3515625 C32.48787131 79.45026456 32.48787131 79.45026456 30.125 77.26953125 C29.00536801 75.01082922 28.08045442 72.83888128 27.3125 70.4375 C27.06113281 69.67308594 26.80976562 68.90867187 26.55078125 68.12109375 C26 66 26 66 26 63 C15.44 63 4.88 63 -6 63 C-6.66 65.97 -7.32 68.94 -8 72 C-8.99 74.31 -9.98 76.62 -11 79 C-16.28 79 -21.56 79 -27 79 C-26.45427719 73.21136783 -25.27576146 68.25172245 -23.26171875 62.8125 C-22.84598854 61.65960228 -22.84598854 61.65960228 -22.42185974 60.4834137 C-21.5186449 57.98586302 -20.60337365 55.49293328 -19.6875 53 C-19.05853104 51.26965005 -18.430119 49.53909757 -17.80224609 47.80834961 C-11.99062101 31.82693635 -6.03050655 15.89997799 0 0 Z " fill="#201F1F" transform="translate(598,139)"/>
<path d="M0 0 C3.52833874 2.97303119 5.68612355 6.61133309 7 11 C7.26965817 14.44592679 7.23251603 17.87745621 7.1953125 21.33203125 C7.1924826 22.32377853 7.18965271 23.31552582 7.18673706 24.33732605 C7.17556804 27.49584159 7.15046927 30.65407057 7.125 33.8125 C7.11496597 35.95767819 7.10584086 38.10286083 7.09765625 40.24804688 C7.07563939 45.49880784 7.0411319 50.74935538 7 56 C2.05 56 -2.9 56 -8 56 C-8.01458252 54.83952148 -8.02916504 53.67904297 -8.04418945 52.48339844 C-8.10219941 48.17432982 -8.17943207 43.8657823 -8.26245117 39.55712891 C-8.29568784 37.69295718 -8.32372373 35.82868513 -8.34643555 33.96435547 C-8.38000488 31.28309409 -8.43232109 28.60275104 -8.48828125 25.921875 C-8.49467117 25.08944275 -8.5010611 24.2570105 -8.50764465 23.39935303 C-8.59586455 19.92073777 -8.67915117 17.59385127 -10.35229492 14.49707031 C-12.79958938 12.27350984 -14.73925655 12.13042974 -18 12 C-20.74303573 12.41387499 -20.74303573 12.41387499 -23 14 C-25.93593196 18.68532838 -26.45252754 22.80225249 -26.4765625 28.20703125 C-26.49993179 29.35603157 -26.49993179 29.35603157 -26.52377319 30.52824402 C-26.57102077 32.95632021 -26.59898413 35.3841116 -26.625 37.8125 C-26.66148303 40.25854329 -26.70201969 42.70442466 -26.74765015 45.15031433 C-26.77490089 46.66821267 -26.79624175 48.18623056 -26.81118774 49.70429993 C-26.88928889 54.88928889 -26.88928889 54.88928889 -28 56 C-30.53049402 56.07313567 -33.03304837 56.09247527 -35.5625 56.0625 C-36.27341797 56.05798828 -36.98433594 56.05347656 -37.71679688 56.04882812 C-39.47790013 56.03700864 -41.23896036 56.01907263 -43 56 C-42.97643433 54.25928223 -42.97643433 54.25928223 -42.95239258 52.48339844 C-42.89806076 48.17471263 -42.86363809 43.86605707 -42.83520508 39.55712891 C-42.82012586 37.69281928 -42.79965939 35.82854508 -42.77368164 33.96435547 C-42.73726004 31.28343967 -42.7202651 28.6029932 -42.70703125 25.921875 C-42.69154739 25.08944275 -42.67606354 24.2570105 -42.66011047 23.39935303 C-42.65909516 19.9020855 -42.66871999 17.61942052 -44.33862305 14.49707031 C-46.79748504 12.28138453 -48.73424287 12.13063029 -52 12 C-54.73506121 12.19327103 -54.73506121 12.19327103 -57 14 C-62.28601353 21.55417221 -61.63389292 30.70064091 -61.6875 39.5 C-61.7165788 41.71191133 -61.75102019 43.92361751 -61.78999329 46.13537598 C-61.82260819 48.12071172 -61.84075715 50.10626946 -61.8581543 52.09179688 C-62 55 -62 55 -63 56 C-67.29 56 -71.58 56 -76 56 C-76 37.19 -76 18.38 -76 -1 C-71.71 -1 -67.42 -1 -63 -1 C-62.34 0.65 -61.68 2.3 -61 4 C-60.071875 3.195625 -59.14375 2.39125 -58.1875 1.5625 C-53.49976888 -2.5002003 -48.93154205 -2.28306075 -42.9453125 -2.2109375 C-38.47863138 -1.89104257 -35.63334165 -0.71174205 -32.53515625 2.53515625 C-31.30284894 3.97910637 -30.14436288 5.48540207 -29 7 C-28.525625 6.0925 -28.05125 5.185 -27.5625 4.25 C-21.39403665 -4.98082105 -8.97525015 -4.51288375 0 0 Z " fill="#201F1F" transform="translate(886,162)"/>
<path d="M0 0 C8.35676332 -0.40925697 16.30363188 1.60366236 22.66015625 7.25390625 C29.35611466 14.86733974 30.35406754 23.77901454 30.03515625 33.60546875 C29.33994411 41.58302811 27.46704146 47.68086638 21.76953125 53.49609375 C13.74293497 60.14407617 3.75807636 60.24155342 -6.22021484 59.46630859 C-12.25734781 58.65954243 -17.09519013 55.77561259 -21.21484375 51.37890625 C-26.63358824 43.00448295 -28.06100087 33.70961677 -27.02734375 23.79296875 C-25.24900289 15.75867878 -21.40037157 8.82789602 -14.6484375 4.03515625 C-9.86011645 1.03576051 -5.60496602 0.47108634 0 0 Z " fill="#201F20" transform="translate(772.27734375,158.80859375)"/>
<path d="M0 0 C8.06461847 4.78794927 11.73172815 11.09170741 14.4375 19.9375 C14.4375 23.8975 14.4375 27.8575 14.4375 31.9375 C0.9075 31.9375 -12.6225 31.9375 -26.5625 31.9375 C-24.3928184 37.9117485 -24.3928184 37.9117485 -20.5625 41.9375 C-15.94018323 43.47827226 -11.38481297 43.59636253 -6.5625 42.9375 C-5.15119108 41.68300318 -3.73736725 40.42411305 -2.44140625 39.05078125 C2.04337397 36.39347904 8.40054827 37.62700298 13.4375 37.9375 C12.54460927 45.31172698 9.20866908 49.69698032 3.5 54.3125 C-4.84602146 58.74100118 -14.58771046 59.37378729 -23.66015625 56.68359375 C-30.75658279 53.90039566 -35.78782138 49.58526203 -39.5625 42.9375 C-42.94869759 34.81990304 -43.34971423 23.09833279 -40 14.875 C-36.64811445 8.75364874 -31.94757511 2.96200926 -25.5625 -0.0625 C-24.83675781 -0.40667969 -24.11101562 -0.75085938 -23.36328125 -1.10546875 C-16.12186994 -3.5798701 -6.93764113 -3.20523238 0 0 Z " fill="#FE7918" transform="translate(488.5625,161.0625)"/>
<path d="M0 0 C4.98318097 2.99160354 7.23877075 6.44050469 8.76904297 12.08105469 C9.35891873 16.10762784 9.33003695 20.07638667 9.3203125 24.140625 C9.32126923 25.01902039 9.32222595 25.89741577 9.32321167 26.8024292 C9.32389019 28.65148999 9.32205885 30.5005532 9.31787109 32.34960938 C9.31249251 35.1914599 9.3178403 38.03315421 9.32421875 40.875 C9.32355841 42.67187535 9.32227817 44.4687506 9.3203125 46.265625 C9.32233673 47.11972961 9.32436096 47.97383423 9.32644653 48.8538208 C9.3024675 54.8225325 9.3024675 54.8225325 8.1875 55.9375 C6.00110547 56.01008946 3.81249611 56.02123783 1.625 56 C-0.17130859 55.98646484 -0.17130859 55.98646484 -2.00390625 55.97265625 C-2.93074219 55.96105469 -3.85757813 55.94945312 -4.8125 55.9375 C-5.1425 54.2875 -5.4725 52.6375 -5.8125 50.9375 C-6.534375 51.55625 -7.25625 52.175 -8 52.8125 C-13.98268512 57.33275098 -19.53142481 57.58084886 -26.8125 56.9375 C-33.06061944 55.68366153 -36.19151406 53.0946618 -39.8125 47.9375 C-41.90791751 43.74666498 -41.22522631 38.50141554 -40.8125 33.9375 C-38.36619822 28.33139176 -34.16832608 25.55106393 -28.8125 22.9375 C-21.41741537 20.34273346 -13.5802755 20.32184306 -5.8125 19.9375 C-7.73641649 14.62338506 -7.73641649 14.62338506 -11.8125 10.9375 C-16.36762779 10.68159394 -19.93632289 11.32798549 -23.6875 13.9375 C-24.38875 14.5975 -25.09 15.2575 -25.8125 15.9375 C-28.65464068 16.88488023 -30.48858391 17.07210559 -33.4375 17.0625 C-34.63246094 17.06636719 -34.63246094 17.06636719 -35.8515625 17.0703125 C-37.8125 16.9375 -37.8125 16.9375 -38.8125 15.9375 C-38.62696118 11.20626008 -37.82416972 7.85501024 -34.48828125 4.359375 C-25.10118471 -3.60543418 -11.24887261 -5.01616394 0 0 Z " fill="#202020" transform="translate(941.8125,162.0625)"/>
<path d="M0 0 C4.67937081 4.51958741 7.41700279 10.19332748 8.6015625 16.546875 C8.6015625 20.176875 8.6015625 23.806875 8.6015625 27.546875 C-4.2684375 27.546875 -17.1384375 27.546875 -30.3984375 27.546875 C-27.52774796 36.27355964 -27.52774796 36.27355964 -23.0859375 38.609375 C-17.51743738 40.02509537 -14.11669217 40.53328046 -9.0234375 37.609375 C-7.14828809 36.1487418 -7.14828809 36.1487418 -5.3984375 34.546875 C-3.21204297 34.47428554 -1.02343361 34.46313717 1.1640625 34.484375 C2.96037109 34.49791016 2.96037109 34.49791016 4.79296875 34.51171875 C5.71980469 34.52332031 6.64664062 34.53492188 7.6015625 34.546875 C6.70334093 41.13074652 4.86833167 44.90424466 -0.3203125 49.1015625 C-5.8719716 52.48998892 -11.167092 53.02675747 -17.5234375 53.109375 C-18.27520264 53.12411865 -19.02696777 53.1388623 -19.80151367 53.15405273 C-26.80835888 53.0259302 -31.99500265 50.68326153 -37.2109375 46.046875 C-43.50518532 38.85344892 -45.97731308 31.53632273 -45.6171875 21.91796875 C-44.88676901 14.00075409 -42.28689125 6.45198165 -36.57421875 0.71484375 C-26.30839658 -7.5744547 -10.57971233 -8.21256208 0 0 Z " fill="#202020" transform="translate(1041.3984375,165.453125)"/>
<path d="M0 0 C1.18464844 -0.00773438 2.36929688 -0.01546875 3.58984375 -0.0234375 C8.78445264 0.57256937 12.8169076 2.52896674 16.3125 6.4375 C22.91546017 15.06536796 21.37247403 27.356696 21.32324219 37.68212891 C21.31241471 40.39638035 21.32323819 43.10998606 21.3359375 45.82421875 C21.33461776 47.54948063 21.33205922 49.2747421 21.328125 51 C21.33217346 51.81138428 21.33622192 52.62276855 21.34039307 53.45874023 C21.29249228 59.14500772 21.29249228 59.14500772 19.0625 61.375 C15.8046875 61.5703125 15.8046875 61.5703125 11.9375 61.5 C10.01550781 61.47292969 10.01550781 61.47292969 8.0546875 61.4453125 C7.06726563 61.42210937 6.07984375 61.39890625 5.0625 61.375 C5.032771 59.6875769 5.032771 59.6875769 5.00244141 57.96606445 C4.92621845 53.78192219 4.83752694 49.59812013 4.74511719 45.41430664 C4.70689633 43.60545582 4.6720315 41.79653079 4.640625 39.98754883 C4.59482443 37.38335698 4.53685526 34.779673 4.4765625 32.17578125 C4.46501129 31.37038406 4.45346008 30.56498688 4.44155884 29.73518372 C4.30358288 24.45485865 3.96981554 20.28231554 0.0625 16.375 C-4.84497469 15.70509076 -9.45092034 15.31315738 -13.5625 18.25 C-16.26340673 22.42412858 -16.15497616 26.02358353 -16.25390625 30.8828125 C-16.27468735 31.72343231 -16.29546844 32.56405212 -16.31687927 33.43014526 C-16.38235439 36.12001235 -16.4412502 38.80997843 -16.5 41.5 C-16.54318716 43.32162489 -16.58680152 45.14323971 -16.63085938 46.96484375 C-16.73803368 51.43479394 -16.83930685 55.90484386 -16.9375 60.375 C-19.94063748 61.87656874 -22.72817522 61.46781204 -26.0625 61.4375 C-27.34382812 61.42847656 -28.62515625 61.41945312 -29.9453125 61.41015625 C-31.42644531 61.39275391 -31.42644531 61.39275391 -32.9375 61.375 C-32.96062821 53.69963373 -32.97841753 46.02427104 -32.98931217 38.34887791 C-32.99453995 34.78522578 -33.00163569 31.22159743 -33.01293945 27.65795898 C-33.02584176 23.56493903 -33.03072906 19.4719442 -33.03515625 15.37890625 C-33.04031754 14.09351456 -33.04547882 12.80812286 -33.05079651 11.48377991 C-33.05087204 10.30263107 -33.05094757 9.12148224 -33.05102539 7.90454102 C-33.053246 6.85863297 -33.05546661 5.81272491 -33.05775452 4.73512268 C-32.9375 2.375 -32.9375 2.375 -31.9375 1.375 C-29.60589945 1.27590698 -27.27120058 1.24529496 -24.9375 1.25 C-23.65875 1.24742187 -22.38 1.24484375 -21.0625 1.2421875 C-17.9375 1.375 -17.9375 1.375 -16.9375 2.375 C-16.89657063 4.70797433 -16.89508277 7.04205225 -16.9375 9.375 C-16.215625 8.446875 -15.49375 7.51875 -14.75 6.5625 C-10.66964527 1.31632963 -6.556535 -0.04271358 0 0 Z " fill="#FE7A18" transform="translate(543.9375,157.625)"/>
<path d="M0 0 C4.62 0 9.24 0 14 0 C15.47602673 2.95205346 15.17680297 5.96472338 15.2109375 9.203125 C15.23901931 10.67318797 15.26768385 12.14323989 15.296875 13.61328125 C15.33802943 15.92821793 15.37491948 18.2429515 15.40136719 20.55810547 C15.42912319 22.79437804 15.47500504 25.02971701 15.5234375 27.265625 C15.52669037 27.9502179 15.52994324 28.63481079 15.53329468 29.34014893 C15.64927651 33.91723621 16.59279181 37.10808887 19 41 C22.20613847 42.60306924 25.52139997 42.48740461 29 42 C32.55687206 39.83494744 34.52996791 37.8659674 36 34 C36.2354457 31.35997941 36.37184421 28.8145854 36.4140625 26.171875 C36.43342865 25.42286926 36.4527948 24.67386353 36.4727478 23.90216064 C36.53235716 21.51822164 36.57885354 19.13423386 36.625 16.75 C36.66319701 15.13018769 36.70224975 13.51039532 36.7421875 11.890625 C36.83804313 7.92724594 36.92214246 3.96377181 37 0 C41.62 0 46.24 0 51 0 C51.98659565 2.95978696 52.12663658 4.88835267 52.12939453 7.97460938 C52.13254669 8.98575806 52.13569885 9.99690674 52.13894653 11.03869629 C52.1369223 12.12936401 52.13489807 13.22003174 52.1328125 14.34375 C52.13376923 15.46438843 52.13472595 16.58502686 52.13571167 17.73962402 C52.13639249 20.11010799 52.13454504 22.48059383 52.13037109 24.85107422 C52.1250215 28.48539404 52.13031944 32.11959028 52.13671875 35.75390625 C52.13605795 38.05468777 52.13477675 40.35546922 52.1328125 42.65625 C52.13483673 43.74691772 52.13686096 44.83758545 52.13894653 45.96130371 C52.13421829 47.47802673 52.13421829 47.47802673 52.12939453 49.02539062 C52.12859894 49.9156897 52.12780334 50.80598877 52.12698364 51.7232666 C52 54 52 54 51 57 C46.38 57 41.76 57 37 57 C36.505 54.03 36.505 54.03 36 51 C35.05125 51.804375 34.1025 52.60875 33.125 53.4375 C28.91495159 57.00688887 25.68870092 57.23939918 20.25 57.3125 C19.54617188 57.34150391 18.84234375 57.37050781 18.1171875 57.40039062 C12.94145811 57.46292267 10.13765426 56.34337241 6 53 C1.08431068 48.08431068 -0.06717168 42.15856946 -0.22705078 35.41992188 C-0.22673922 33.76949737 -0.21574685 32.11904803 -0.1953125 30.46875 C-0.19106766 29.15396667 -0.19106766 29.15396667 -0.18673706 27.81262207 C-0.17563492 25.04160301 -0.15054954 22.27091965 -0.125 19.5 C-0.11495729 17.6093797 -0.10583371 15.71875429 -0.09765625 13.828125 C-0.07572835 9.21862271 -0.04126845 4.60936806 0 0 Z " fill="#1E1E1E" transform="translate(649,161)"/>
<path d="M0 0 C4.64250286 3.78756657 7.24491857 7.64902664 8.82421875 13.48828125 C9.63385979 22.48847694 9.84130198 31.60650544 4.82421875 39.48828125 C1.5692036 43.33761096 -2.26925566 45.40884562 -7.17578125 46.48828125 C-13.64195513 47.00146965 -18.56746032 46.38510228 -23.83984375 42.15234375 C-29.71336978 36.22095047 -31.16779599 27.96823885 -31.61328125 19.86328125 C-31.34152284 12.7457991 -28.20044452 5.51294452 -23.17578125 0.48828125 C-15.59364938 -4.81921106 -7.62742741 -5.31971853 0 0 Z " fill="#FAF9F8" transform="translate(347.17578125,157.51171875)"/>
<path d="M0 0 C3.61328125 0.03255208 7.2265625 0.06510417 10.83984375 0.09765625 C10.83984375 5.04765625 10.83984375 9.99765625 10.83984375 15.09765625 C14.02640625 15.06671875 14.02640625 15.06671875 17.27734375 15.03515625 C19.46483986 15.01391842 21.65344922 15.02506679 23.83984375 15.09765625 C25.5066839 16.7644964 25.05057139 18.75408694 25.08984375 21.03515625 C25.115625 21.93105469 25.14140625 22.82695312 25.16796875 23.75 C25.0596875 24.52472656 24.95140625 25.29945313 24.83984375 26.09765625 C21.41890133 28.37828453 20.15797153 28.31690632 16.15234375 28.22265625 C14.66154297 28.19558594 14.66154297 28.19558594 13.140625 28.16796875 C12.38136719 28.14476562 11.62210938 28.1215625 10.83984375 28.09765625 C10.94951473 32.36902879 11.08019365 36.63950391 11.21484375 40.91015625 C11.24578125 42.12509766 11.27671875 43.34003906 11.30859375 44.59179688 C11.34726562 45.75517578 11.3859375 46.91855469 11.42578125 48.1171875 C11.4729126 49.72750854 11.4729126 49.72750854 11.52099609 51.37036133 C11.65576682 54.31373275 11.65576682 54.31373275 13.83984375 57.09765625 C16.23293144 57.64256999 16.23293144 57.64256999 18.90234375 57.72265625 C23.757401 58.0152135 23.757401 58.0152135 24.83984375 59.09765625 C24.99076288 60.90578349 25.06153383 62.72096242 25.08984375 64.53515625 C25.115625 65.52386719 25.14140625 66.51257813 25.16796875 67.53125 C25.0596875 68.37816406 24.95140625 69.22507812 24.83984375 70.09765625 C19.53906069 73.63151163 12.47431629 72.77555944 6.34765625 71.6328125 C2.69935836 70.46948732 0.84688985 69.1061477 -1.59765625 66.16015625 C-4.1051708 61.24542774 -4.28046527 57.45305802 -4.2578125 51.92578125 C-4.25639755 51.24336365 -4.2549826 50.56094604 -4.25352478 49.85784912 C-4.24794709 47.68773941 -4.23539879 45.51773455 -4.22265625 43.34765625 C-4.21763836 41.87239733 -4.21307596 40.39713678 -4.20898438 38.921875 C-4.197985 35.31376827 -4.18073578 31.7057225 -4.16015625 28.09765625 C-5.27390625 28.15953125 -6.38765625 28.22140625 -7.53515625 28.28515625 C-8.73140625 28.22328125 -9.92765625 28.16140625 -11.16015625 28.09765625 C-13.87248564 24.02916216 -13.46715512 21.93288841 -13.16015625 17.09765625 C-11.16015625 15.09765625 -11.16015625 15.09765625 -7.53515625 14.97265625 C-5.86453125 15.03453125 -5.86453125 15.03453125 -4.16015625 15.09765625 C-4.17175781 14.09863281 -4.18335938 13.09960938 -4.1953125 12.0703125 C-4.20433594 10.77996094 -4.21335937 9.48960937 -4.22265625 8.16015625 C-4.23425781 6.87238281 -4.24585938 5.58460938 -4.2578125 4.2578125 C-4.13018023 0.12763227 -4.13018023 0.12763227 0 0 Z " fill="#1E1E1E" transform="translate(968.16015625,145.90234375)"/>
<path d="M0 0 C3.00390625 -0.328125 3.00390625 -0.328125 6.5625 -0.25 C8.32787109 -0.22679687 8.32787109 -0.22679687 10.12890625 -0.203125 C13 0 13 0 14 1 C14.07271741 3.35313555 14.08370868 5.70833668 14.0625 8.0625 C14.05347656 9.35285156 14.04445313 10.64320313 14.03515625 11.97265625 C14.02355469 12.97167969 14.01195312 13.97070312 14 15 C14.71027344 14.98839844 15.42054688 14.97679687 16.15234375 14.96484375 C17.07144531 14.95582031 17.99054687 14.94679687 18.9375 14.9375 C19.85402344 14.92589844 20.77054688 14.91429687 21.71484375 14.90234375 C24 15 24 15 25 16 C25.09823937 17.66429051 25.12973631 19.33281931 25.125 21 C25.12886719 22.36125 25.12886719 22.36125 25.1328125 23.75 C25 26 25 26 24 27 C22.31391034 27.07205511 20.62499341 27.08386068 18.9375 27.0625 C18.01839844 27.05347656 17.09929688 27.04445312 16.15234375 27.03515625 C15.44207031 27.02355469 14.73179687 27.01195312 14 27 C14.1546875 27.74765625 14.309375 28.4953125 14.46875 29.265625 C15.34971975 35.45832412 15.39904827 41.69527545 15.60546875 47.94140625 C15.64285156 48.94558594 15.68023438 49.94976562 15.71875 50.984375 C15.74904297 51.89928711 15.77933594 52.81419922 15.81054688 53.75683594 C15.86357314 56.03577421 15.86357314 56.03577421 17 58 C18.86309092 58.4279618 18.86309092 58.4279618 21 58.5625 C24.90410959 58.90410959 24.90410959 58.90410959 26 60 C26.07226502 61.85287502 26.0838122 63.70833878 26.0625 65.5625 C26.05347656 66.57441406 26.04445313 67.58632812 26.03515625 68.62890625 C26.02355469 69.41136719 26.01195312 70.19382812 26 71 C20.27775579 72.90741474 12.59248839 73.26063684 6.8515625 71.24609375 C3.51024249 69.0835643 0.7364089 66.13802256 -0.56811523 62.35058594 C-1.17762993 59.03322727 -1.12238569 55.75025822 -1.09765625 52.390625 C-1.0962413 51.66381531 -1.09482635 50.93700562 -1.09336853 50.18817139 C-1.08778792 47.87540506 -1.07523904 45.56273688 -1.0625 43.25 C-1.05748249 41.67838682 -1.05292002 40.10677211 -1.04882812 38.53515625 C-1.03782485 34.69006657 -1.02057361 30.8450499 -1 27 C-1.969375 27.020625 -2.93875 27.04125 -3.9375 27.0625 C-7 27 -7 27 -8 26 C-8.07226502 24.14712498 -8.0838122 22.29166122 -8.0625 20.4375 C-8.05347656 19.42558594 -8.04445313 18.41367188 -8.03515625 17.37109375 C-8.02355469 16.58863281 -8.01195312 15.80617187 -8 15 C-5.69 15 -3.38 15 -1 15 C-1.09539063 14.16855469 -1.19078125 13.33710938 -1.2890625 12.48046875 C-1.39992188 11.39378906 -1.51078125 10.30710938 -1.625 9.1875 C-1.74101563 8.10855469 -1.85703125 7.02960938 -1.9765625 5.91796875 C-2 3 -2 3 0 0 Z " fill="#201F1F" transform="translate(716,146)"/>
<path d="M0 0 C16.77183099 1.29014085 16.77183099 1.29014085 21.4921875 6.71484375 C26.45033838 13.33971767 26.21658252 19.18314979 26.24023438 27.28686523 C26.24991505 29.29488027 26.28111291 31.30275382 26.3125 33.31054688 C26.31765625 34.58607422 26.3228125 35.86160156 26.328125 37.17578125 C26.34214355 38.92242065 26.34214355 38.92242065 26.35644531 40.7043457 C25.74005868 46.40338893 23.32843193 50.18088003 19 53.8125 C18.319375 54.39644531 17.63875 54.98039062 16.9375 55.58203125 C11.50946405 59.55456562 7.50799801 58 0 58 C0 38.86 0 19.72 0 0 Z " fill="#FE7817" transform="translate(245,162)"/>
<path d="M0 0 C0 18.81 0 37.62 0 57 C-13.73459716 57 -13.73459716 57 -19.7578125 51.3515625 C-25.87113445 44.58851551 -26.34061525 38.60068067 -26.3125 29.75 C-26.32861328 28.75097656 -26.34472656 27.75195312 -26.36132812 26.72265625 C-26.36629697 19.12031778 -25.25353907 12.75589845 -21.3125 6.1875 C-14.61332593 -0.14955655 -9.70565695 0 0 0 Z " fill="#FE7816" transform="translate(46,163)"/>
<path d="M0 0 C5.66482064 2.65504876 9.52586647 6.0472732 12.55859375 11.58984375 C14.42750054 17.39329116 14.63138391 21.86316342 12.18359375 27.40234375 C9.26854038 32.63501905 5.22291189 36.01141448 -0.06640625 38.71484375 C-6.26990549 39.80957891 -12.01010461 39.32385185 -17.56640625 36.21484375 C-22.34312039 32.84020157 -25.29698481 28.67708949 -26.8828125 23.04296875 C-27.77028783 17.62469829 -27.22170208 12.95732948 -24.25390625 8.27734375 C-17.42268276 0.92509474 -10.13794526 -3.25046772 0 0 Z " fill="#FEFCFB" transform="translate(113.25390625,164.72265625)"/>
<path d="M0 0 C4.05712501 3.04284376 5.84765321 6.12824489 7.265625 10.93359375 C8.03763111 16.76652884 7.69647319 21.95167916 4.71484375 27.109375 C0.73146874 32.12348856 -4.43000299 35.06678445 -10.734375 36.05859375 C-17.47642284 36.35218215 -22.45615796 33.76607267 -27.609375 29.62109375 C-31.64652513 24.51528623 -33.33473645 19.65260126 -33.08203125 13.203125 C-32.2681208 7.88984444 -29.83979227 3.6409693 -25.859375 0.05859375 C-17.373118 -5.71206101 -8.56445558 -5.26598282 0 0 Z " fill="#FEFDFB" transform="translate(197.734375,168.06640625)"/>
<path d="M0 0 C3.91185456 1.28698561 6.4328507 3.24989931 8.9375 6.5625 C10.84095866 12.72074861 11.15924123 18.54775893 8.375 24.4375 C4.69072351 28.41264042 1.55412778 31.19371195 -4 31.4375 C-8.84256274 31.16898314 -12.51838735 29.63488292 -15.8125 26 C-18.91500464 20.77472902 -18.56821118 14.88448842 -18 9 C-13.93799408 0.73091651 -8.77328291 -1.20126489 0 0 Z " fill="#FBFAF8" transform="translate(415,173)"/>
<path d="M0 0 C3.97644635 3.87180302 5.78441866 7.75795409 6.3125 13.25 C5.82940381 19.04715428 4.69440317 24.00658451 0.875 28.5 C-3.04872694 30.54716188 -6.58180934 31.20082685 -11 31 C-15.25191901 29.33620561 -17.02151711 27.05588992 -19 23 C-20.70538119 17.26802434 -20.58437072 11.87613757 -18.8125 6.1875 C-16.61670761 2.32593408 -14.37800566 -0.20246845 -10.08984375 -1.640625 C-6.48286828 -2.26088994 -3.3435347 -1.39657931 0 0 Z " fill="#F9F9F9" transform="translate(781,174)"/>
<path d="M0 0 C2 1 2 1 3.05322266 3.75976562 C3.4197998 4.96310547 3.78637695 6.16644531 4.1640625 7.40625 C4.36099701 8.04614868 4.55793152 8.68604736 4.76083374 9.34533691 C5.38944872 11.3947623 6.00713098 13.44731247 6.625 15.5 C7.04880481 16.88432121 7.47327567 18.26843871 7.8984375 19.65234375 C11 29.79740177 11 29.79740177 11 31 C3.74 31 -3.52 31 -11 31 C-9.59543965 26.90612718 -8.1900464 22.81256073 -6.7824707 18.71972656 C-6.30378005 17.32699486 -5.82558718 15.93409196 -5.34790039 14.54101562 C-4.66162486 12.53991315 -3.97356781 10.53943099 -3.28515625 8.5390625 C-2.87144775 7.33459473 -2.45773926 6.13012695 -2.03149414 4.88916016 C-1 2 -1 2 0 0 Z " fill="#F6F6F6" transform="translate(608,156)"/>
<path d="M0 0 C2.64736238 1.41411904 3.91820814 2.71002895 6 5 C6.33 6.65 6.66 8.3 7 10 C-1.58 10 -10.16 10 -19 10 C-16.69791667 3.09375 -16.69791667 3.09375 -12 0 C-7.80011838 -1.39996054 -4.27518201 -1.06333318 0 0 Z " fill="#FBF7F2" transform="translate(481,172)"/>
<path d="M0 0 C-0.49061033 7.35915493 -0.49061033 7.35915493 -2.9375 10.4375 C-6.29315904 12.97966594 -8.32428645 13.1600282 -12.5 13.1875 C-13.4796875 13.20167969 -14.459375 13.21585938 -15.46875 13.23046875 C-18 13 -18 13 -20 11 C-20.55752537 5.75926152 -20.55752537 5.75926152 -18.8125 3.3828125 C-14.02085141 -0.27288492 -5.80826193 -0.3139601 0 0 Z " fill="#F5F5F5" transform="translate(936,193)"/>
<path d="M0 0 C2.5625 2.375 2.5625 2.375 3.5625 8.375 C-4.0275 8.375 -11.6175 8.375 -19.4375 8.375 C-18.4375 2.375 -18.4375 2.375 -16.5625 0.5625 C-10.99257797 -2.55010349 -5.64751771 -2.66973564 0 0 Z " fill="#F8F7F8" transform="translate(1031.4375,173.625)"/>
<path d="M0 0 C2.60570381 3.90855571 2.28770167 7.22063738 2.265625 11.75390625 C2.26753845 12.61056381 2.2694519 13.46722137 2.27142334 14.34983826 C2.27278373 16.15957941 2.26909747 17.96933036 2.26074219 19.77905273 C2.25002741 22.55539749 2.26064904 25.3310971 2.2734375 28.10742188 C2.27211614 29.86458477 2.26955422 31.62174726 2.265625 33.37890625 C2.26967346 34.21224991 2.27372192 35.04559357 2.27789307 35.90419006 C2.22992731 41.77007269 2.22992731 41.77007269 0 44 C-3.2578125 44.1953125 -3.2578125 44.1953125 -7.125 44.125 C-9.04699219 44.09792969 -9.04699219 44.09792969 -11.0078125 44.0703125 C-11.99523437 44.04710937 -12.98265625 44.02390625 -14 44 C-13.67 42.35 -13.34 40.7 -13 39 C-12.67 39.66 -12.34 40.32 -12 41 C-8.37 41 -4.74 41 -1 41 C-1.00523682 39.79351807 -1.01047363 38.58703613 -1.01586914 37.34399414 C-1.03391611 32.88436622 -1.04543089 28.42474154 -1.05493164 23.96508789 C-1.05997256 22.03181415 -1.06680519 20.09854424 -1.07543945 18.1652832 C-1.08751565 15.39273128 -1.09323057 12.62022959 -1.09765625 9.84765625 C-1.10281754 8.97786636 -1.10797882 8.10807648 -1.11329651 7.21192932 C-1.11349185 5.14094186 -1.06208168 3.07005676 -1 1 C-0.67 0.67 -0.34 0.34 0 0 Z " fill="#FE7D24" transform="translate(563,175)"/>
<path d="M0 0 C1.79244141 0.01740234 1.79244141 0.01740234 3.62109375 0.03515625 C5.41740234 0.04869141 5.41740234 0.04869141 7.25 0.0625 C8.17683594 0.07410156 9.10367188 0.08570313 10.05859375 0.09765625 C10.05859375 0.42765625 10.05859375 0.75765625 10.05859375 1.09765625 C4.11859375 1.59265625 4.11859375 1.59265625 -1.94140625 2.09765625 C-1.94140625 20.57765625 -1.94140625 39.05765625 -1.94140625 58.09765625 C2.01859375 58.09765625 5.97859375 58.09765625 10.05859375 58.09765625 C10.05859375 58.75765625 10.05859375 59.41765625 10.05859375 60.09765625 C5.43859375 60.09765625 0.81859375 60.09765625 -3.94140625 60.09765625 C-3.96396148 52.42228648 -3.98232378 44.74692896 -3.99321842 37.07153416 C-3.9984462 33.50788203 -4.00554194 29.94425368 -4.0168457 26.38061523 C-4.02974801 22.28759528 -4.03463531 18.19460045 -4.0390625 14.1015625 C-4.04422379 12.81617081 -4.04938507 11.53077911 -4.05470276 10.20643616 C-4.05477829 9.02528732 -4.05485382 7.84413849 -4.05493164 6.62719727 C-4.05715225 5.58128922 -4.05937286 4.53538116 -4.06166077 3.45777893 C-3.88230353 -0.06229739 -3.58071176 0.11888153 0 0 Z " fill="#FE6C08" transform="translate(514.94140625,158.90234375)"/>
<path d="M0 0 C0.33 0 0.66 0 1 0 C1 3.3 1 6.6 1 10 C1.66 10 2.32 10 3 10 C3 14.95 3 19.9 3 25 C-1.62 25 -6.24 25 -11 25 C-11 24.67 -11 24.34 -11 24 C-7.37 24 -3.74 24 0 24 C0 16.08 0 8.16 0 0 Z " fill="#2B2B2A" transform="translate(856,192)"/>
<path d="M0 0 C4.62 0 9.24 0 14 0 C14 3.3 14 6.6 14 10 C12.68 10.33 11.36 10.66 10 11 C10.33 10.34 10.66 9.68 11 9 C11.0689472 7.62657169 11.08467708 6.24997898 11.0625 4.875 C11.041875 3.59625 11.02125 2.3175 11 1 C7.37 1 3.74 1 0 1 C0 0.67 0 0.34 0 0 Z " fill="#2E2E2E" transform="translate(979,162)"/>
<path d="M0 0 C3.96 0 7.92 0 12 0 C10 3 10 3 8.125 3.3984375 C7.073125 3.38683594 7.073125 3.38683594 6 3.375 C5.29875 3.38273438 4.5975 3.39046875 3.875 3.3984375 C2 3 2 3 0 0 Z " fill="#272627" transform="translate(918,206)"/>
<path d="M0 0 C4.29 0 8.58 0 13 0 C11.875 6.75 11.875 6.75 9 9 C9.66 7.02 10.32 5.04 11 3 C10.34 3 9.68 3 9 3 C9 2.34 9 1.68 9 1 C6.03 1 3.06 1 0 1 C0 0.67 0 0.34 0 0 Z " fill="#FE620A" transform="translate(489,199)"/>
<path d="M0 0 C0.66 0.33 1.32 0.66 2 1 C2 4.96 2 8.92 2 13 C1.67 13 1.34 13 1 13 C1 11.02 1 9.04 1 7 C0.34 7 -0.32 7 -1 7 C-1.04254356 5.00045254 -1.04080783 2.99958364 -1 1 C-0.67 0.67 -0.34 0.34 0 0 Z " fill="#2A292A" transform="translate(715,148)"/>
<path d="M0 0 C0.99 0 1.98 0 3 0 C2.39009109 3.55780196 1.4216319 6.6828589 0 10 C-1.231394 6.30581799 -0.64432764 3.7943739 0 0 Z " fill="#272626" transform="translate(590,160)"/>
</svg>
